
<!-- <svg preserveAspectRatio="xMidYMid" xmlns="http://www.w3.org/2000/svg" viewBox="0 0 216 288">
  <path d="M93.201 103.282c0-7.734 6.18-13.066 14.613-13.066 8.603 0 14.627 5.332 14.627 13.066 0 7.741-6.024 13.244-14.627 13.244-8.433-.001-14.613-5.503-14.613-13.244m2.053 25.796h25.283v85.287H95.254z"/>
</svg> -->
<svg preserveAspectRatio="xMidYMid"  xmlns="http://www.w3.org/2000/svg" viewBox="0 0 216 288">
  <path d="M92.201 102.148c0-7.063 5.644-11.932 13.345-11.932 7.856 0 13.358 4.869 13.358 11.932 0 7.07-5.502 12.095-13.358 12.095-7.701 0-13.345-5.025-13.345-12.095m1.875 23.558h23.089v77.887H94.076z"/>
</svg>