<?xml version="1.0" encoding="utf-8"?>
<!-- Generator: Adobe Illustrator 16.0.0, SVG Export Plug-In . SVG Version: 6.00 Build 0)  -->
<!DOCTYPE svg PUBLIC "-//W3C//DTD SVG 1.1//EN" "http://www.w3.org/Graphics/SVG/1.1/DTD/svg11.dtd">
<svg version="1.1" id="Layer_1" preserveAspectRatio="xMinYMax meet" xmlns="http://www.w3.org/2000/svg" xmlns:xlink="http://www.w3.org/1999/xlink" x="0px" y="0px"
	 width="873.909px" height="203.599px" viewBox="0 0 873.909 203.599" enable-background="new 0 0 873.909 203.599"
	 xml:space="preserve">
<polygon fill="#FFF6D6" points="785.126,7.875 785.126,190.996 864.821,190.996 864.821,163.604 816.576,163.604 816.576,109.834 
	857.158,109.834 857.158,82.442 816.576,82.442 816.576,35.267 864.821,35.267 864.821,7.875 "/>
<path fill="#FFF6D6" d="M157.912,190.996h-31.354V8.437h43.997c35.147,0,53.099,14.918,53.099,53.858
	c0,29.33-11.378,41.214-21.998,46.019l26.549,82.683h-31.859l-22.251-75.603c-4.046,0.505-10.62,0.758-16.183,0.758V190.996z
	 M157.912,90.36h11.125c16.942,0,23.263-6.321,23.263-28.066c0-21.746-6.321-28.067-23.263-28.067h-11.125V90.36z"/>
<polygon fill="#FFF6D6" points="259.057,190.996 259.057,8.436 343.003,8.436 343.003,35.744 290.411,35.744 290.411,82.775 
	330.867,82.775 330.867,110.083 290.411,110.083 290.411,163.688 346.543,163.688 346.543,190.996 "/>
<path fill="#FFF6D6" d="M395.597,190.996h-30.343l33.63-182.56h38.939l33.63,182.56H441.11l-5.562-40.456H401.16L395.597,190.996z
	 M405.711,123.231h25.285l-12.389-78.385h-0.506L405.711,123.231z"/>
<polygon fill="#FFF6D6" points="504.61,35.744 474.268,35.744 474.268,8.436 566.307,8.436 566.307,35.744 535.964,35.744 
	535.964,190.996 504.61,190.996 "/>
<rect x="595.132" y="8.436" fill="#FFF6D6" width="31.354" height="182.56"/>
<polygon fill="#FFF6D6" points="731.17,8.436 762.018,8.436 723.837,190.996 692.481,190.996 654.302,8.436 685.149,8.436 
	707.907,135.115 708.413,135.115 "/>
<path fill="#FFF6D6" d="M100.257,69.038V45.593c0,0-1.041-41.768-41.767-41.768c0,0-47.5-3.386-51.668,34.647v30.566v58.006v1.736
	v21.708c0,0,1.041,41.769,41.768,41.769c0,0,47.499,3.387,51.667-34.647v-30.565H69.17l-0.174,24.313
	c0,0-1.563,13.547-15.457,13.547c0,0-14.24,1.042-15.977-13.547V128.78v-1.736V69.038h0.347l0.174-24.314
	c0,0,1.564-13.546,15.458-13.546c0,0,14.24-1.042,15.977,13.546v24.314H100.257z"/>
</svg>
