<?xml version="1.0" encoding="utf-8"?>
<!-- Generator: Adobe Illustrator 16.0.0, SVG Export Plug-In . SVG Version: 6.00 Build 0)  -->
<!DOCTYPE svg PUBLIC "-//W3C//DTD SVG 1.1//EN" "http://www.w3.org/Graphics/SVG/1.1/DTD/svg11.dtd">
<svg version="1.1" id="Layer_1" xmlns="http://www.w3.org/2000/svg" xmlns:xlink="http://www.w3.org/1999/xlink" x="0px" y="0px"
	 width="885.51px" height="195.445px" viewBox="0 0 885.51 195.445" enable-background="new 0 0 885.51 195.445"
	 xml:space="preserve">
<g id="Layer_1_1_">
</g>
<polygon fill="#FFF6D6" points="117.964,-650.839 117.964,-538.918 117.42,-538.918 76.5,-650.839 45.577,-650.839 45.577,-455.181 
	75.687,-455.181 75.687,-577.401 76.229,-577.401 119.048,-455.181 148.315,-455.181 148.315,-650.839 "/>
<polygon fill="#FFF6D6" points="200.349,-621.573 167.828,-621.573 167.828,-650.84 266.471,-650.84 266.471,-621.573 
	233.952,-621.573 233.952,-455.18 200.349,-455.18 "/>
<rect x="290.86" y="-650.84" fill="#FFF6D6" width="33.605" height="195.658"/>
<polygon fill="#FFF6D6" points="381.102,-621.573 348.583,-621.573 348.583,-650.84 447.225,-650.84 447.225,-621.573 
	414.708,-621.573 414.708,-455.18 381.102,-455.18 "/>
<polygon fill="#FFF6D6" points="465.381,-455.181 465.381,-650.84 498.985,-650.84 498.985,-484.449 551.831,-484.449 
	551.831,-455.181 "/>
<polygon fill="#FFF6D6" points="572.424,-650.839 572.424,-455.181 657.577,-455.181 657.577,-484.448 606.028,-484.448 
	606.028,-541.899 649.387,-541.899 649.387,-571.166 606.028,-571.166 606.028,-621.573 657.577,-621.573 657.577,-650.839 "/>
<path fill="#FFF6D6" d="M-89.488-650.84h33.192v145.886c0,14.188,5.622,21.146,17.667,21.146s17.667-6.96,17.667-21.146V-650.84
	h33.193v144.547c0,33.193-19.273,51.396-50.859,51.396s-50.859-18.201-50.859-51.396L-89.488-650.84L-89.488-650.84z"/>
<path fill="#FFF6D6" d="M679.708-651.84h49.998c34.781,0,53.262,19.021,53.262,59.239v77.719c0,40.217-18.479,59.238-53.262,59.238
	h-49.998V-651.84z M713.403-483.362h11.686c17.937,0,24.185-6.793,24.185-27.444v-85.869c0-20.652-6.248-27.446-24.185-27.446
	h-11.686V-483.362z"/>
<g>
	<polygon fill="#FFF6D6" points="802.433,2.7 802.433,191.299 884.51,191.299 884.51,163.088 834.819,163.088 834.819,107.709 
		876.618,107.709 876.618,79.498 834.819,79.498 834.819,30.911 884.51,30.911 884.51,2.7 	"/>
	<path fill="#FFF6D6" d="M156.454,191.299h-32.292V3.278h45.313c36.2,0,54.688,15.365,54.688,55.469
		c0,30.207-11.718,42.448-22.656,47.397l27.342,85.155h-32.811l-22.917-77.864c-4.167,0.52-10.938,0.78-16.667,0.78L156.454,191.299
		L156.454,191.299z M156.454,87.652h11.458c17.449,0,23.959-6.511,23.959-28.905c0-22.395-6.51-28.906-23.959-28.906h-11.458V87.652
		z"/>
	<polygon fill="#FFF6D6" points="260.625,191.299 260.625,3.278 347.083,3.278 347.083,31.403 292.917,31.403 292.917,79.842 
		334.583,79.842 334.583,107.966 292.917,107.966 292.917,163.174 350.726,163.174 350.726,191.299 	"/>
	<path fill="#FFF6D6" d="M401.248,191.299h-31.249L404.635,3.278h40.104l34.635,188.02h-31.25l-5.728-41.667h-35.418
		L401.248,191.299z M411.665,121.507h26.04l-12.759-80.73h-0.52L411.665,121.507z"/>
	<polygon fill="#FFF6D6" points="513.524,31.403 482.274,31.403 482.274,3.278 577.066,3.278 577.066,31.403 545.816,31.403 
		545.816,191.299 513.524,191.299 	"/>
	<rect x="606.754" y="3.278" fill="#FFF6D6" width="32.291" height="188.02"/>
	<polygon fill="#FFF6D6" points="746.861,3.278 778.629,3.278 739.311,191.299 707.016,191.299 667.695,3.278 699.464,3.278 
		722.902,133.746 723.422,133.746 	"/>
	<path fill="#FFF6D6" d="M97.126,66.882V43.224c0,0-1.05-42.146-42.146-42.146c0,0-47.931-3.417-52.137,34.961v30.843v58.532v1.751
		v21.905c0,0,1.049,42.15,42.146,42.15c0,0,47.93,3.414,52.135-34.963v-30.841H65.756l-0.175,24.532c0,0-1.576,13.669-15.598,13.669
		c0,0-14.368,1.053-16.121-13.669v-22.782v-1.751V66.883h0.351l0.174-24.535c0,0,1.578-13.669,15.598-13.669
		c0,0,14.37-1.051,16.122,13.669v24.535L97.126,66.882L97.126,66.882z"/>
</g>
</svg>
