<?xml version="1.0" encoding="utf-8"?>
<!-- Generator: Adobe Illustrator 16.0.0, SVG Export Plug-In . SVG Version: 6.00 Build 0)  -->
<!DOCTYPE svg PUBLIC "-//W3C//DTD SVG 1.1//EN" "http://www.w3.org/Graphics/SVG/1.1/DTD/svg11.dtd">
<svg version="1.1" preserveAspectRatio="xMinYMax meet" id="Layer_1" xmlns="http://www.w3.org/2000/svg" xmlns:xlink="http://www.w3.org/1999/xlink" x="0px" y="0px"
	 width="681.919px" height="206.892px" viewBox="0 0 681.919 206.892" enable-background="new 0 0 681.919 206.892"
	 xml:space="preserve">
<polygon fill="#FFF6D6" points="219.53,-491.302 219.53,-379.381 218.986,-379.381 178.066,-491.302 147.143,-491.302 
	147.143,-295.644 177.253,-295.644 177.253,-417.863 177.795,-417.863 220.614,-295.644 249.881,-295.644 249.881,-491.302 "/>
<polygon fill="#FFF6D6" points="301.914,-462.035 269.394,-462.035 269.394,-491.303 368.037,-491.303 368.037,-462.035 
	335.518,-462.035 335.518,-295.643 301.914,-295.643 "/>
<rect x="392.427" y="-491.303" fill="#FFF6D6" width="33.604" height="195.659"/>
<polygon fill="#FFF6D6" points="482.669,-462.035 450.148,-462.035 450.148,-491.303 548.792,-491.303 548.792,-462.035 
	516.273,-462.035 516.273,-295.643 482.669,-295.643 "/>
<polygon fill="#FFF6D6" points="566.947,-295.644 566.947,-491.303 600.551,-491.303 600.551,-324.912 653.396,-324.912 
	653.396,-295.644 "/>
<polygon fill="#FFF6D6" points="673.99,-491.302 673.99,-295.644 759.143,-295.644 759.143,-324.911 707.594,-324.911 
	707.594,-382.362 750.954,-382.362 750.954,-411.629 707.594,-411.629 707.594,-462.035 759.143,-462.035 759.143,-491.302 "/>
<polygon fill="#FFF6D6" points="798.381,-230.825 798.381,-47.704 878.076,-47.704 878.076,-75.096 829.831,-75.096 
	829.831,-128.866 870.413,-128.866 870.413,-156.258 829.831,-156.258 829.831,-203.434 878.076,-203.434 878.076,-230.825 "/>
<path fill="#FFF6D6" d="M171.167-47.704h-31.354v-182.56h43.997c35.147,0,53.099,14.918,53.099,53.858
	c0,29.33-11.378,41.214-21.998,46.019l26.549,82.683h-31.859l-22.251-75.603c-4.046,0.505-10.62,0.758-16.183,0.758V-47.704z
	 M171.167-148.34h11.125c16.942,0,23.263-6.321,23.263-28.066c0-21.746-6.321-28.067-23.263-28.067h-11.125V-148.34z"/>
<polygon fill="#FFF6D6" points="272.312,-47.704 272.312,-230.264 356.258,-230.264 356.258,-202.956 303.666,-202.956 
	303.666,-155.925 344.122,-155.925 344.122,-128.617 303.666,-128.617 303.666,-75.013 359.798,-75.013 359.798,-47.704 "/>
<path fill="#FFF6D6" d="M408.852-47.704h-30.343l33.63-182.56h38.939l33.63,182.56h-30.343l-5.562-40.456h-34.388L408.852-47.704z
	 M418.966-115.469h25.285l-12.389-78.385h-0.506L418.966-115.469z"/>
<polygon fill="#FFF6D6" points="517.865,-202.956 487.522,-202.956 487.522,-230.264 579.562,-230.264 579.562,-202.956 
	549.219,-202.956 549.219,-47.704 517.865,-47.704 "/>
<rect x="608.387" y="-230.264" fill="#FFF6D6" width="31.354" height="182.56"/>
<polygon fill="#FFF6D6" points="744.425,-230.264 775.272,-230.264 737.092,-47.704 705.736,-47.704 667.557,-230.264 
	698.404,-230.264 721.162,-103.585 721.668,-103.585 "/>
<polygon fill="#FFF6D6" points="144.854,41.042 114.512,41.042 114.512,13.733 206.55,13.733 206.55,41.042 176.208,41.042 
	176.208,196.294 144.854,196.294 "/>
<path fill="#FFF6D6" d="M231.078,13.733h31.354v137.806c0,13.401,5.31,19.976,16.688,19.976s16.688-6.574,16.688-19.976V13.733
	h31.354v136.541c0,31.355-18.205,48.548-48.042,48.548s-48.042-17.192-48.042-48.548V13.733z"/>
<path fill="#FFF6D6" d="M12.078-491.303h33.192v145.886c0,14.187,5.622,21.147,17.667,21.147c12.045,0,17.667-6.96,17.667-21.147
	v-145.886h33.193v144.547c0,33.194-19.273,51.395-50.859,51.395s-50.859-18.201-50.859-51.395V-491.303z"/>
<path fill="#FFF6D6" d="M363.577,13.732h46.525c32.365,0,49.56,17.701,49.56,55.123v72.316c0,37.422-17.194,55.122-49.56,55.122
	h-46.525V13.732z M394.931,170.503h10.873c16.688,0,22.504-6.321,22.504-25.538V65.062c0-19.217-5.816-25.539-22.504-25.539h-10.873
	V170.503z"/>
<path fill="#FFF6D6" d="M781.273-492.303h49.999c34.782,0,53.261,19.023,53.261,59.24v77.718c0,40.217-18.479,59.239-53.261,59.239
	h-49.999V-492.303z M814.969-323.824h11.685c17.936,0,24.185-6.793,24.185-27.445v-85.87c0-20.652-6.249-27.446-24.185-27.446
	h-11.685V-323.824z"/>
<rect x="500.374" y="13.732" fill="#FFF6D6" width="31.354" height="182.562"/>
<path fill="#FFF6D6" d="M572.439,57.982c0-25.791,15.171-46.777,48.04-46.777c32.872,0,48.044,20.986,48.044,46.777v94.062
	c0,25.791-15.172,46.777-48.044,46.777c-32.869,0-48.04-20.986-48.04-46.777V57.982z M603.793,151.286
	c0,13.654,4.045,20.229,16.687,20.229c12.645,0,16.689-6.574,16.689-20.229V58.741c0-13.654-4.045-20.228-16.689-20.228
	c-12.642,0-16.687,6.573-16.687,20.228V151.286z"/>
<path fill="#FFF6D6" d="M113.512-169.662v-23.445c0,0-1.041-41.768-41.767-41.768c0,0-47.5-3.386-51.668,34.647v30.566v58.006v1.736
	v21.708c0,0,1.041,41.769,41.768,41.769c0,0,47.499,3.387,51.667-34.647v-30.565H82.425l-0.174,24.313
	c0,0-1.563,13.547-15.457,13.547c0,0-14.24,1.042-15.977-13.547v-22.577v-1.736v-58.006h0.347l0.174-24.314
	c0,0,1.564-13.546,15.458-13.546c0,0,14.24-1.042,15.977,13.546v24.314H113.512z"/>
<path fill="#FFF6D6" d="M69.522,58.121l28.849-3.543c0,0-0.506-41.504-40.996-43.022c0,0-45.552-3.036-48.082,44.034
	c0,0-3.543,28.344,33.91,57.193c0,0,38.973,28.343,25.307,48.589c0,0-12.653,16.701-29.355,0c0,0-4.049-16.197-4.049-19.74
	l-28.85,5.061c0,0,0.506,47.071,46.059,49.602c0,0,48.588,0,48.588-47.576c0,0,0.506-25.307-19.739-42.01
	c0,0-39.478-32.392-43.021-46.563c0,0-4.556-22.27,15.437-21.764C53.579,38.381,68.003,35.851,69.522,58.121z"/>
</svg>
