<?xml version="1.0" encoding="utf-8"?>
<!-- Generator: Adobe Illustrator 16.0.0, SVG Export Plug-In . SVG Version: 6.00 Build 0)  -->
<!DOCTYPE svg PUBLIC "-//W3C//DTD SVG 1.1//EN" "http://www.w3.org/Graphics/SVG/1.1/DTD/svg11.dtd">
<svg version="1.1" id="Layer_1" xmlns="http://www.w3.org/2000/svg" xmlns:xlink="http://www.w3.org/1999/xlink" x="0px" y="0px"
	 width="900.021px" height="195.445px" viewBox="0 0 900.021 195.445" enable-background="new 0 0 900.021 195.445"
	 xml:space="preserve">
<g id="Layer_1_1_">
</g>
<g>
	<polygon fill="#FFF6D6" points="147.989,32.297 116.999,32.297 116.999,4.406 211.001,4.406 211.001,32.297 180.012,32.297 
		180.012,190.864 147.989,190.864 	"/>
	<path fill="#FFF6D6" d="M236.054,4.406h32.023v140.746c0,13.688,5.424,20.401,17.043,20.401c11.623,0,17.045-6.713,17.045-20.401
		V4.406h32.023v139.455c0,32.022-18.592,49.584-49.068,49.584c-30.473,0-49.066-17.56-49.066-49.584V4.406L236.054,4.406z"/>
	<path fill="#FFF6D6" d="M371.381,4.406h47.516c33.057,0,50.62,18.078,50.62,56.299v73.86c0,38.221-17.562,56.297-50.62,56.297
		h-47.516V4.406z M403.402,164.522h11.104c17.047,0,22.984-6.455,22.984-26.084V56.83c0-19.627-5.938-26.084-22.984-26.084h-11.104
		V164.522z"/>
	<rect x="511.097" y="4.406" fill="#FFF6D6" width="32.023" height="186.458"/>
	<path fill="#FFF6D6" d="M584.704,49.599c0-26.341,15.49-47.775,49.062-47.775s49.068,21.435,49.068,47.775v96.068
		c0,26.342-15.496,47.777-49.068,47.777s-49.062-21.437-49.062-47.777V49.599z M616.724,144.894c0,13.947,4.133,20.66,17.047,20.66
		c12.912,0,17.041-6.713,17.041-20.66v-94.52c0-13.946-4.131-20.659-17.041-20.659c-12.914,0-17.047,6.712-17.047,20.659V144.894z"
		/>
	<path fill="#FFF6D6" d="M71.049,49.741l29.465-3.619c0,0-0.517-42.39-41.871-43.939c0,0-46.524-3.102-49.109,44.974
		c0,0-3.619,28.95,34.634,58.413c0,0,39.804,28.948,25.847,49.629c0,0-12.922,17.057-29.981,0c0,0-4.135-16.545-4.135-20.162
		l-29.467,5.167c0,0,0.517,48.076,47.042,50.66c0,0,49.625,0,49.625-48.592c0,0,0.518-25.849-20.16-42.906
		c0,0-40.321-33.083-43.939-47.557c0,0-4.654-22.745,15.767-22.229C54.765,29.579,69.497,26.996,71.049,49.741z"/>
</g>
<rect x="690.511" y="1.319" fill="#FFFFFF" width="209.511" height="191.303"/>
</svg>
