<?xml version="1.0" encoding="utf-8"?>
<!-- Generator: Adobe Illustrator 16.0.0, SVG Export Plug-In . SVG Version: 6.00 Build 0)  -->
<!DOCTYPE svg PUBLIC "-//W3C//DTD SVG 1.1//EN" "http://www.w3.org/Graphics/SVG/1.1/DTD/svg11.dtd">
<svg version="1.1" xmlns="http://www.w3.org/2000/svg" preserveAspectRatio="xMinYMax meet" xmlns:xlink="http://www.w3.org/1999/xlink" x="0px" y="0px"
	 width="899.84px" height="226px" viewBox="0 0 899.84 226" enable-background="new 0 0 899.84 226" xml:space="preserve">
<g id="Layer_1">
	<polygon fill="#FFF6D6" points="221.227,15.694 221.227,127.615 220.684,127.615 179.764,15.694 148.84,15.694 148.84,211.353 
		178.951,211.353 178.951,89.133 179.493,89.133 222.311,211.353 251.579,211.353 251.579,15.694 	"/>
	<polygon fill="#FFF6D6" points="303.611,44.961 271.091,44.961 271.091,15.693 369.734,15.693 369.734,44.961 337.215,44.961 
		337.215,211.353 303.611,211.353 	"/>
	<rect x="394.124" y="15.693" fill="#FFF6D6" width="33.604" height="195.659"/>
	<polygon fill="#FFF6D6" points="484.366,44.961 451.846,44.961 451.846,15.693 550.489,15.693 550.489,44.961 517.971,44.961 
		517.971,211.353 484.366,211.353 	"/>
	<polygon fill="#FFF6D6" points="568.645,211.353 568.645,15.693 602.248,15.693 602.248,182.084 655.093,182.084 655.093,211.353 	
		"/>
	<polygon fill="#FFF6D6" points="675.688,15.694 675.688,211.353 760.84,211.353 760.84,182.085 709.291,182.085 709.291,124.634 
		752.651,124.634 752.651,95.367 709.291,95.367 709.291,44.961 760.84,44.961 760.84,15.694 	"/>
	<path fill="#FFF6D6" d="M13.775,15.693h33.192v145.886c0,14.187,5.622,21.147,17.667,21.147c12.045,0,17.667-6.96,17.667-21.147
		V15.693h33.193V160.24c0,33.194-19.273,51.395-50.859,51.395s-50.859-18.201-50.859-51.395V15.693z"/>
	<path fill="#FFF6D6" d="M782.971,14.693h49.999c34.782,0,53.261,19.023,53.261,59.24v77.718c0,40.217-18.479,59.239-53.261,59.239
		h-49.999V14.693z M816.666,183.172h11.685c17.936,0,24.185-6.793,24.185-27.445v-85.87c0-20.652-6.249-27.446-24.185-27.446
		h-11.685V183.172z"/>
</g>
<g id="Layer_2">
	<path fill="#FFF6D6" d="M-938.327,115v-11.25c0,0-0.5-20.042-20.042-20.042c0,0-22.792-1.625-24.792,16.625V115v27.833v0.833
		v10.417c0,0,0.5,20.042,20.042,20.042c0,0,22.792,1.625,24.792-16.625v-14.667h-14.917l-0.083,11.667c0,0-0.75,6.5-7.417,6.5
		c0,0-6.833,0.5-7.667-6.5v-10.833v-0.833V115h0.167l0.083-11.667c0,0,0.75-6.5,7.417-6.5c0,0,6.833-0.5,7.667,6.5V115H-938.327z"/>
	<path fill="#FFF6D6" d="M-888.41,219.25l14.25-1.75c0,0-0.25-20.5-20.25-21.25c0,0-22.5-1.5-23.75,21.75c0,0-1.75,14,16.75,28.25
		c0,0,19.25,14,12.5,24c0,0-6.25,8.25-14.5,0c0,0-2-8-2-9.75l-14.25,2.5c0,0,0.25,23.25,22.75,24.5c0,0,24,0,24-23.5
		c0,0,0.25-12.5-9.75-20.75c0,0-19.5-16-21.25-23c0,0-2.25-11,7.625-10.75C-896.285,209.5-889.16,208.25-888.41,219.25z"/>
</g>
</svg>
