<?xml version="1.0" encoding="utf-8"?>
<!-- Generator: Adobe Illustrator 16.0.0, SVG Export Plug-In . SVG Version: 6.00 Build 0)  -->
<!DOCTYPE svg PUBLIC "-//W3C//DTD SVG 1.1//EN" "http://www.w3.org/Graphics/SVG/1.1/DTD/svg11.dtd">
<svg version="1.1" id="Layer_1" xmlns="http://www.w3.org/2000/svg" xmlns:xlink="http://www.w3.org/1999/xlink" x="0px" y="0px"
	 width="887.845px" height="201.723px" viewBox="0 0 887.845 201.723" enable-background="new 0 0 887.845 201.723"
	 xml:space="preserve">
<g id="Layer_1_1_">
</g>
<g id="Layer_2">
	<g>
		<polygon fill="#FFF6D6" points="212.706,1.01 212.706,114.079 212.157,114.079 170.817,1.01 139.576,1.01 139.576,198.676 
			169.995,198.676 169.995,75.203 170.542,75.203 213.802,198.676 243.369,198.676 243.369,1.01 		"/>
		<polygon fill="#FFF6D6" points="295.935,30.577 263.082,30.577 263.082,1.01 362.735,1.01 362.735,30.577 329.883,30.577 
			329.883,198.677 295.935,198.677 		"/>
		<rect x="387.375" y="1.01" fill="#FFF6D6" width="33.95" height="197.667"/>
		<polygon fill="#FFF6D6" points="478.542,30.577 445.689,30.577 445.689,1.01 545.343,1.01 545.343,30.577 512.492,30.577 
			512.492,198.677 478.542,198.677 		"/>
		<polygon fill="#FFF6D6" points="563.687,198.676 563.687,1.01 597.635,1.01 597.635,169.109 651.022,169.109 651.022,198.676 		
			"/>
		<polygon fill="#FFF6D6" points="671.827,1.01 671.827,198.676 757.853,198.676 757.853,169.11 705.775,169.11 705.775,111.07 
			749.58,111.07 749.58,81.501 705.775,81.501 705.775,30.577 757.853,30.577 757.853,1.01 		"/>
		<path fill="#FFF6D6" d="M3.126,1.01h33.532v147.382c0,14.333,5.679,21.364,17.849,21.364c12.168,0,17.848-7.031,17.848-21.364
			V1.01h33.534v146.03c0,33.535-19.471,51.924-51.38,51.924s-51.38-18.388-51.38-51.924L3.126,1.01L3.126,1.01z"/>
		<path fill="#FFF6D6" d="M780.211,0h50.511c35.137,0,53.808,19.218,53.808,59.849v78.516c0,40.629-18.671,59.846-53.808,59.846
			h-50.511V0z M814.253,170.206h11.806c18.119,0,24.43-6.863,24.43-27.726V55.73c0-20.865-6.312-27.729-24.43-27.729h-11.806
			V170.206z"/>
	</g>
</g>
</svg>
