<?xml version="1.0" encoding="utf-8"?>
<!-- Generator: Adobe Illustrator 16.0.0, SVG Export Plug-In . SVG Version: 6.00 Build 0)  -->
<!DOCTYPE svg PUBLIC "-//W3C//DTD SVG 1.1//EN" "http://www.w3.org/Graphics/SVG/1.1/DTD/svg11.dtd">
<svg version="1.1" id="Layer_1" xmlns="http://www.w3.org/2000/svg" xmlns:xlink="http://www.w3.org/1999/xlink" x="0px" y="0px"
	 width="900px" height="232px" viewBox="0 0 900 232" enable-background="new 0 0 900 232" xml:space="preserve">
<polygon points="219.482,18.798 219.482,130.719 218.939,130.719 178.02,18.798 147.096,18.798 147.096,214.457 177.207,214.457 
	177.207,92.236 177.748,92.236 220.566,214.457 249.834,214.457 249.834,18.798 "/>
<polygon points="301.867,48.064 269.348,48.064 269.348,18.797 367.99,18.797 367.99,48.064 335.471,48.064 335.471,214.457 
	301.867,214.457 "/>
<rect x="392.38" y="18.797" width="33.604" height="195.659"/>
<polygon points="482.622,48.064 450.102,48.064 450.102,18.797 548.745,18.797 548.745,48.064 516.227,48.064 516.227,214.457 
	482.622,214.457 "/>
<polygon points="566.9,214.457 566.9,18.797 600.504,18.797 600.504,185.188 653.349,185.188 653.349,214.457 "/>
<polygon points="673.943,18.798 673.943,214.457 759.096,214.457 759.096,185.189 707.547,185.189 707.547,127.738 750.907,127.738 
	750.907,98.471 707.547,98.471 707.547,48.064 759.096,48.064 759.096,18.798 "/>
<path d="M15.031,18.798h33.125v145.591c0,14.158,5.61,21.104,17.631,21.104s17.632-6.945,17.632-21.104V18.798h33.124v144.255
	c0,33.126-19.233,51.29-50.756,51.29s-50.756-18.164-50.756-51.29V18.798z"/>
<path d="M788.529,17.385h50.595c35.196,0,53.894,19.249,53.894,59.943v78.642c0,40.694-18.697,59.943-53.894,59.943h-50.595V17.385z
	 M822.627,187.866h11.823c18.147,0,24.472-6.874,24.472-27.771V73.203c0-20.896-6.324-27.772-24.472-27.772h-11.823V187.866z"/>
</svg>
