<svg class="untitled-black" xmlns="http://www.w3.org/2000/svg" preserveAspectRatio="xMinYMax meet" viewBox="0 0 899.84 226"><g fill="#000">
			<path d="M48.797,239.966v26.865h-0.13l-9.823-26.865h-7.423v46.967h7.228v-29.338h0.13l10.278,29.338h7.026v-46.967 M68.573,246.991
	h-7.806v-7.025h23.679v7.025h-7.806v39.941h-8.066 M90.3,239.966h8.066v46.967H90.3V239.966z M111.962,246.991h-7.806v-7.025h23.678
	v7.025h-7.807v39.941h-8.066 M132.192,286.933v-46.967h8.066v39.94h12.685v7.026 M157.887,239.966v46.967h20.441v-7.025h-12.375
	v-13.791h10.408v-7.025h-10.408v-12.1h12.375v-7.025 M1,239.966h7.967v35.02c0,3.404,1.35,5.075,4.241,5.075
	c2.891,0,4.241-1.671,4.241-5.076v-35.019h7.968v34.697c0,7.968-4.626,12.337-12.208,12.337S1,282.632,1,274.663L1,239.966
	L1,239.966z M183.64,239.726h12.002c8.349,0,12.784,4.566,12.784,14.221v18.655c0,9.653-4.436,14.22-12.784,14.22H183.64V239.726z
	 M191.729,280.168h2.805c4.305,0,5.805-1.631,5.805-6.589v-20.611c0-4.958-1.5-6.589-5.805-6.589h-2.805V280.168L191.729,280.168z"
	/></g><g fill="#FFF6D6"><path fill="#FFF6D6" d="M-225.238,261.355v-2.701c0,0-0.12-4.811-4.811-4.811c0,0-5.471-0.391-5.951,3.99v12.902
		c0,0,0.12,4.812,4.811,4.812c0,0,5.471,0.39,5.951-3.991v-3.521h-3.581l-0.02,2.801c0,0-0.18,1.561-1.78,1.561
		c0,0-1.641,0.12-1.841-1.561v-9.481h0.04l0.02-2.801c0,0,0.18-1.561,1.78-1.561c0,0,1.64-0.119,1.84,1.561v2.801H-225.238
		L-225.238,261.355z M-213.256,286.38l3.42-0.421c0,0-0.06-4.92-4.861-5.1c0,0-5.401-0.361-5.701,5.221c0,0-0.42,3.36,4.021,6.781
		c0,0,4.621,3.36,3,5.761c0,0-1.5,1.979-3.48,0c0,0-0.48-1.921-0.48-2.341l-3.421,0.601c0,0,0.06,5.581,5.461,5.881
		c0,0,5.761,0,5.761-5.642c0,0,0.06-3-2.34-4.98c0,0-4.681-3.84-5.101-5.521c0,0-0.54-2.64,1.831-2.58
		C-215.146,284.039-213.437,283.739-213.256,286.38z"/></g>
		</svg>